<?xml version="1.0" encoding="UTF-8"?>
<svg id="Capa_1" data-name="Capa 1" xmlns="http://www.w3.org/2000/svg" viewBox="0 0 542.01 173.52">
  <defs>
    <style>
      .cls-1 {
        fill: #6f9719;
      }

      .cls-2 {
        fill: #fff;
      }
    </style>
  </defs>
  <g>
    <g>
      <path class="cls-2" d="M162.47,53.2c-2.79,0-5.24-.65-7.35-1.94s-3.75-3.12-4.93-5.49-1.77-5.15-1.77-8.36.6-6.05,1.8-8.42,2.84-4.19,4.93-5.48,4.47-1.93,7.14-1.93c1.66,0,3.22.25,4.66.74s2.73,1.2,3.87,2.1,2.07,1.99,2.82,3.24,1.25,2.63,1.51,4.15h-4.81c-.26-.91-.63-1.73-1.11-2.47s-1.06-1.37-1.74-1.89-1.45-.92-2.31-1.2-1.8-.41-2.82-.41c-1.77,0-3.36.45-4.77,1.35s-2.51,2.21-3.31,3.93c-.8,1.72-1.21,3.8-1.21,6.25s.4,4.51,1.21,6.23c.8,1.72,1.92,3.03,3.33,3.94s3.05,1.36,4.89,1.36c1.64,0,3.08-.34,4.33-1.01s2.23-1.63,2.92-2.87,1.04-2.69,1.04-4.35l1.24.19h-8.79v-3.86h12.13v3.53c0,2.56-.56,4.78-1.67,6.68-1.11,1.89-2.64,3.36-4.58,4.41s-4.15,1.57-6.64,1.57Z"/>
      <path class="cls-2" d="M180.94,52.77v-30.75h4.71v26.7h14.03v4.04h-18.74Z"/>
      <path class="cls-2" d="M216.31,53.2c-2.68,0-5.07-.64-7.17-1.92s-3.75-3.1-4.96-5.46-1.82-5.16-1.82-8.41.61-6.07,1.82-8.44,2.86-4.19,4.96-5.47,4.49-1.92,7.17-1.92,5.05.64,7.15,1.92,3.75,3.1,4.95,5.47,1.81,5.18,1.81,8.44-.6,6.05-1.81,8.41-2.85,4.18-4.95,5.46-4.48,1.92-7.15,1.92ZM216.31,48.93c1.75,0,3.32-.44,4.72-1.32s2.5-2.18,3.31-3.9,1.22-3.82,1.22-6.29-.41-4.62-1.22-6.34-1.92-3.02-3.31-3.9-2.97-1.32-4.72-1.32-3.34.44-4.75,1.33-2.51,2.19-3.33,3.91-1.23,3.82-1.23,6.31.41,4.57,1.23,6.28,1.93,3.01,3.33,3.9,2.99,1.33,4.75,1.33Z"/>
      <path class="cls-2" d="M235.67,52.77v-30.75h11.37c2.17,0,3.98.35,5.43,1.06s2.53,1.67,3.26,2.88,1.09,2.59,1.09,4.13c0,1.27-.23,2.34-.69,3.21s-1.08,1.58-1.87,2.13-1.66.95-2.64,1.21v.25c1.06.08,2.08.42,3.05,1.02s1.78,1.44,2.4,2.54.94,2.42.94,3.97-.38,3.03-1.13,4.29c-.76,1.27-1.91,2.26-3.46,2.98s-3.52,1.08-5.91,1.08h-11.85ZM240.35,35.31h6.34c1.06,0,2.01-.2,2.84-.59s1.49-.95,1.96-1.67.71-1.57.71-2.55c0-1.31-.45-2.38-1.35-3.23s-2.25-1.27-4.05-1.27h-6.44v9.31ZM240.35,48.76h6.71c2.19,0,3.78-.42,4.78-1.27s1.5-1.94,1.5-3.27c0-.99-.24-1.88-.73-2.67s-1.19-1.42-2.09-1.88-1.99-.69-3.26-.69h-6.89v9.78Z"/>
      <path class="cls-2" d="M263.28,52.77v-30.75h19.67v4.04h-14.96v9.14h13.89v4h-13.89v9.51h15.06v4.04h-19.77Z"/>
    </g>
    <g>
      <path class="cls-2" d="M149.93,119.05v-49.35h13.48v38.35h20.24v11h-33.72Z"/>
      <path class="cls-2" d="M201.9,69.7v49.35h-13.48v-49.35h13.48Z"/>
      <path class="cls-2" d="M208.03,119.05v-49.35h35.24v11h-21.76v10.6h19.84v10.67h-19.84v17.09h-13.48Z"/>
      <path class="cls-2" d="M246.65,80.69v-11h42.66v11h-14.61v38.35h-13.45v-38.35h-14.61Z"/>
      <path class="cls-2" d="M307.36,119.05v-49.35h21.2c3.73,0,6.99.72,9.77,2.15s4.94,3.46,6.48,6.08,2.3,5.68,2.3,9.19-.78,6.59-2.35,9.16-3.77,4.56-6.61,5.96-6.14,2.1-9.92,2.1h-12.82v-10.6h10.47c1.55,0,2.87-.27,3.96-.81s1.94-1.31,2.53-2.3.89-2.16.89-3.51-.3-2.57-.89-3.54-1.44-1.72-2.53-2.24-2.41-.78-3.96-.78h-5.03v38.49h-13.48Z"/>
      <path class="cls-2" d="M343.73,119.05l16.13-49.35h18.32l16.63,49.35h-15.24l-5.7-19.14c-1.21-4.15-2.37-8.42-3.46-12.8s-2.14-8.77-3.13-13.17h3.18c-.95,4.39-1.92,8.78-2.91,13.17s-2.1,8.65-3.31,12.8l-5.53,19.14h-14.97ZM355.68,109.87v-10.14h27.16v10.14h-27.16Z"/>
      <path class="cls-2" d="M399.04,119.05v-49.35h21.2c3.73,0,6.99.67,9.77,2.02s4.94,3.28,6.48,5.81,2.3,5.54,2.3,9.03-.79,6.49-2.37,8.93-3.8,4.29-6.66,5.56-6.2,1.9-10.02,1.9h-12.52v-10.47h10.33c1.55,0,2.87-.21,3.96-.63s1.94-1.07,2.53-1.94.89-1.99.89-3.36-.3-2.5-.89-3.38-1.44-1.55-2.53-1.99-2.41-.66-3.96-.66h-5.03v38.52h-13.48ZM425.9,119.05l-11.76-22.59h14.18l12.09,22.59h-14.51Z"/>
      <path class="cls-2" d="M442.63,80.69v-11h42.66v11h-14.61v38.35h-13.45v-38.35h-14.61Z"/>
      <path class="cls-2" d="M509.53,119.68c-4.33,0-8.09-.64-11.28-1.92s-5.65-3.23-7.39-5.86-2.61-5.96-2.63-10h12.78c.09,1.46.47,2.7,1.16,3.73s1.64,1.8,2.87,2.32,2.69.78,4.39.78c1.44,0,2.65-.18,3.64-.53s1.76-.84,2.29-1.47.79-1.36.79-2.2c0-.75-.25-1.41-.75-1.99s-1.3-1.09-2.42-1.56-2.59-.87-4.42-1.23l-4.94-1.03c-4.46-.93-7.94-2.53-10.45-4.82s-3.76-5.34-3.76-9.16c0-3.14.85-5.88,2.55-8.25s4.05-4.2,7.05-5.51,6.47-1.97,10.4-1.97,7.49.66,10.4,1.99,5.17,3.2,6.76,5.63,2.41,5.28,2.45,8.55h-12.82c-.11-1.63-.73-2.91-1.85-3.83s-2.76-1.37-4.9-1.37c-1.35,0-2.47.17-3.38.5s-1.58.79-2.04,1.37-.68,1.25-.68,2c0,.79.23,1.48.7,2.05s1.2,1.07,2.22,1.49,2.31.79,3.88,1.13l4.04.83c2.74.57,5.1,1.32,7.07,2.24s3.59,2,4.85,3.25,2.18,2.66,2.77,4.24.88,3.32.88,5.22c0,3.29-.81,6.08-2.42,8.38s-3.92,4.04-6.94,5.23-6.64,1.79-10.88,1.79Z"/>
    </g>
    <g>
      <path class="cls-2" d="M353.78,154.05c-.76,0-1.4-.13-1.91-.38s-.93-.56-1.25-.92-.57-.71-.76-1.05h-.18v2.08h-2.58v-18.05h2.65v6.8h.12c.18-.32.42-.66.74-1.02s.73-.66,1.24-.91,1.15-.38,1.93-.38c1.1,0,2.07.28,2.91.83s1.51,1.34,1.99,2.37.73,2.26.73,3.7-.24,2.66-.72,3.7-1.14,1.83-1.99,2.39-1.82.84-2.93.84ZM353.21,151.8c.75,0,1.39-.2,1.91-.61s.92-.96,1.19-1.67.41-1.51.41-2.42-.14-1.72-.41-2.41-.67-1.24-1.19-1.64-1.16-.59-1.92-.59-1.4.19-1.93.58-.92.93-1.19,1.62-.41,1.5-.41,2.44.14,1.74.41,2.45.68,1.25,1.21,1.65,1.17.59,1.91.59Z"/>
      <path class="cls-2" d="M361.64,158.71l.51-2.18.55.07c.41.09.78.1,1.11.04s.62-.23.87-.5.45-.67.6-1.21l.35-1.11-5.1-13.4h2.85l2.65,7.55c.29.81.54,1.61.74,2.42s.42,1.61.64,2.41h-.8c.23-.8.45-1.6.67-2.41s.47-1.61.75-2.41l2.69-7.55h2.81l-5.86,15.34c-.27.69-.6,1.28-.99,1.75s-.85.83-1.39,1.07-1.15.36-1.84.36c-.38,0-.73-.02-1.05-.07s-.57-.1-.76-.15Z"/>
      <path class="cls-2" d="M390.03,154.04c-1.64,0-3.08-.38-4.31-1.14s-2.2-1.83-2.9-3.22-1.04-3.03-1.04-4.91.35-3.55,1.05-4.94,1.67-2.46,2.9-3.22,2.63-1.13,4.19-1.13c.98,0,1.89.15,2.74.44s1.61.7,2.27,1.24,1.22,1.17,1.65,1.9.73,1.55.88,2.44h-2.82c-.15-.53-.37-1.02-.65-1.45s-.62-.8-1.02-1.11-.85-.54-1.36-.7-1.06-.24-1.65-.24c-1.04,0-1.97.26-2.8.79s-1.47,1.3-1.94,2.31-.71,2.23-.71,3.67.24,2.65.71,3.66,1.12,1.78,1.96,2.31,1.79.8,2.87.8c.96,0,1.81-.2,2.54-.59s1.31-.96,1.71-1.68.61-1.58.61-2.56l.73.11h-5.16v-2.27h7.12v2.07c0,1.5-.33,2.81-.98,3.92s-1.55,1.97-2.69,2.59-2.44.92-3.9.92Z"/>
      <path class="cls-2" d="M400.67,153.79v-13.38h2.56v2.14h.12c.25-.73.67-1.3,1.27-1.71s1.29-.62,2.09-.62c.18,0,.37,0,.58.02s.38.03.51.04v2.51c-.1-.02-.28-.05-.55-.08s-.55-.05-.84-.05c-.58,0-1.11.13-1.58.38s-.84.6-1.1,1.06-.4.99-.4,1.61v8.08h-2.65Z"/>
      <path class="cls-2" d="M414.63,153.97c-.91,0-1.72-.19-2.41-.58s-1.24-.96-1.63-1.71-.59-1.7-.59-2.81v-8.46h2.65v8.13c0,.99.25,1.75.76,2.3s1.2.82,2.09.82c.6,0,1.13-.13,1.6-.39s.84-.64,1.11-1.14.41-1.12.41-1.85v-7.88h2.65v13.38h-2.54v-3.28s.33,0,.33,0c-.4,1.2-.98,2.08-1.74,2.64s-1.65.83-2.7.83Z"/>
      <path class="cls-2" d="M424.7,158.85v-18.44h2.58v2.12h.18c.19-.32.43-.66.75-1.02s.72-.66,1.24-.91,1.16-.38,1.93-.38c1.1,0,2.07.28,2.91.83s1.51,1.34,1.99,2.37.73,2.26.73,3.7-.24,2.66-.72,3.7-1.14,1.83-1.99,2.39-1.82.84-2.93.84c-.76,0-1.39-.13-1.9-.38s-.92-.56-1.24-.92-.57-.7-.76-1.04h-.12v7.14h-2.65ZM430.8,151.8c.75,0,1.39-.2,1.91-.61s.92-.96,1.19-1.67.41-1.51.41-2.42-.14-1.72-.41-2.41-.67-1.24-1.19-1.64-1.16-.59-1.92-.59-1.4.19-1.93.58-.92.93-1.19,1.62-.41,1.5-.41,2.44.14,1.74.41,2.45.68,1.25,1.21,1.65,1.17.59,1.91.59Z"/>
      <path class="cls-2" d="M445.46,154.06c-1.26,0-2.36-.29-3.3-.87s-1.67-1.39-2.19-2.42-.78-2.24-.78-3.62.26-2.6.78-3.65,1.25-1.85,2.19-2.43,2.04-.87,3.3-.87,2.37.29,3.31.87,1.67,1.39,2.19,2.43.78,2.26.78,3.65-.26,2.58-.78,3.62-1.25,1.85-2.19,2.42-2.05.87-3.31.87ZM445.46,151.82c.8,0,1.47-.21,2.01-.62s.94-.98,1.21-1.68.4-1.49.4-2.36-.13-1.67-.4-2.38-.67-1.27-1.21-1.69-1.21-.63-2.01-.63-1.46.21-1.99.63-.93.98-1.19,1.69-.4,1.5-.4,2.38.13,1.65.4,2.36.66,1.27,1.19,1.68,1.19.62,1.99.62Z"/>
      <path class="cls-2" d="M468.84,154.04c-1.64,0-3.08-.38-4.31-1.14s-2.2-1.83-2.9-3.22-1.04-3.03-1.04-4.91.35-3.55,1.05-4.94,1.67-2.46,2.9-3.22,2.63-1.13,4.19-1.13c.98,0,1.89.15,2.74.44s1.61.7,2.27,1.24,1.22,1.17,1.65,1.9.73,1.55.88,2.44h-2.82c-.15-.53-.37-1.02-.65-1.45s-.62-.8-1.02-1.11-.85-.54-1.36-.7-1.06-.24-1.65-.24c-1.04,0-1.97.26-2.8.79s-1.47,1.3-1.94,2.31-.71,2.23-.71,3.67.24,2.65.71,3.66,1.12,1.78,1.96,2.31,1.79.8,2.87.8c.96,0,1.81-.2,2.54-.59s1.31-.96,1.71-1.68.61-1.58.61-2.56l.73.11h-5.16v-2.27h7.12v2.07c0,1.5-.33,2.81-.98,3.92s-1.55,1.97-2.69,2.59-2.44.92-3.9.92Z"/>
      <path class="cls-2" d="M482.13,135.73v18.05h-2.65v-18.05h2.65Z"/>
      <path class="cls-2" d="M491.2,154.06c-1.26,0-2.36-.29-3.3-.87s-1.67-1.39-2.19-2.42-.78-2.24-.78-3.62.26-2.6.78-3.65,1.25-1.85,2.19-2.43,2.04-.87,3.3-.87,2.37.29,3.31.87,1.67,1.39,2.19,2.43.78,2.26.78,3.65-.26,2.58-.78,3.62-1.25,1.85-2.19,2.42-2.05.87-3.31.87ZM491.2,151.82c.8,0,1.47-.21,2.01-.62s.94-.98,1.21-1.68.4-1.49.4-2.36-.13-1.67-.4-2.38-.67-1.27-1.21-1.69-1.21-.63-2.01-.63-1.46.21-1.99.63-.93.98-1.19,1.69-.4,1.5-.4,2.38.13,1.65.4,2.36.66,1.27,1.19,1.68,1.19.62,1.99.62Z"/>
      <path class="cls-2" d="M506.97,154.05c-.76,0-1.4-.13-1.91-.38s-.93-.56-1.25-.92-.57-.71-.76-1.05h-.18v2.08h-2.58v-18.05h2.65v6.8h.12c.18-.32.42-.66.74-1.02s.73-.66,1.24-.91,1.15-.38,1.93-.38c1.1,0,2.07.28,2.91.83s1.51,1.34,1.99,2.37.73,2.26.73,3.7-.24,2.66-.72,3.7-1.14,1.83-1.99,2.39-1.82.84-2.93.84ZM506.4,151.8c.75,0,1.39-.2,1.91-.61s.92-.96,1.19-1.67.41-1.51.41-2.42-.14-1.72-.41-2.41-.67-1.24-1.19-1.64-1.16-.59-1.92-.59-1.4.19-1.93.58-.92.93-1.19,1.62-.41,1.5-.41,2.44.14,1.74.41,2.45.68,1.25,1.21,1.65,1.17.59,1.91.59Z"/>
      <path class="cls-2" d="M521.17,154.06c-1.32,0-2.46-.29-3.42-.86s-1.69-1.38-2.2-2.41-.77-2.24-.77-3.62.25-2.57.76-3.62,1.23-1.86,2.16-2.45,2.01-.88,3.25-.88c.81,0,1.57.13,2.3.4s1.37.68,1.93,1.23,1,1.26,1.33,2.11.48,1.86.48,3.04v.9h-10.8v-1.99h9.43l-1.21.64c0-.82-.13-1.54-.39-2.16s-.65-1.11-1.16-1.46-1.14-.52-1.88-.52-1.38.18-1.91.53-.93.83-1.22,1.42-.42,1.25-.42,1.97v1.3c0,.9.16,1.66.47,2.3s.75,1.12,1.32,1.46,1.23.5,1.99.5c.51,0,.97-.07,1.38-.22s.76-.37,1.05-.66.51-.65.65-1.07l2.5.46c-.2.73-.56,1.37-1.08,1.92s-1.16.98-1.93,1.29-1.64.46-2.6.46Z"/>
    </g>
  </g>
  <path class="cls-1" d="M61.42,125.92H28.16c-8.79,0-15.92-7.13-15.92-15.92V30.51c0-8.79,7.13-15.92,15.92-15.92h79.49c8.79,0,15.92,7.13,15.92,15.92v79.49c0,8.79-7.13,15.92-15.92,15.92h-33.27c-2.39,0-4.37-1.87-4.5-4.27l-.79-15.02c-.03-.64-.09-1.29-.11-1.92-.05-1.44,1-2.59,2.46-2.63l21.5,3.79-.02-.24-2.78-7.61c-.22-.6-.1-1.14.26-1.65,7-5.67,13.96-11.32,20.94-16.99.73-.6,1.56-1.17,2.28-1.81.04-.04.26-.23.21-.28-.54-.21-1.07-.45-1.59-.69-1.11-.53-2.67-1.13-3.68-1.75-.75-.46-.96-1.13-.75-1.97.56-2.29,1.7-4.64,2.24-6.95.16-.09.11-.28.17-.46.72-2.21,1.49-4.41,2.14-6.64-2.26.51-4.53.95-6.79,1.43-2.14.45-4.28.99-6.44,1.36-.08.01-.15.08-.24.09-.47.07-1.14-.21-1.44-.59-.84-1.67-1.56-3.43-2.3-5.16-.17-.41-.34-.83-.47-1.25h-.13s-10.51,11.28-10.51,11.28c-1.21.86-2.74.07-2.68-1.41,1.55-8.31,3.3-16.53,4.85-24.81.03-.16.21-1.22.17-1.27l-4,2.31c-.12.07-.31.12-.42.18-1.1.64-2.48,1.63-3.59,2.14-1.45.66-2.04-.28-2.62-1.37-2.61-4.89-4.91-9.98-7.56-14.83-.1-.18-.18-.74-.41-.39-.18.28-.32.69-.48.99-2.03,3.97-4.09,7.98-6.12,11.92-.47.91-.89,1.92-1.4,2.83-.41.73-.89,1.13-1.79,1.02-.58-.07-1.12-.56-1.61-.83-2.33-1.32-4.66-2.63-6.96-4.02-.05.07.15,1.13.18,1.31,1.46,7.88,3.15,15.72,4.58,23.61.13.75.44,1.33.08,2.09-.45.95-1.68,1.14-2.5.53l-10.51-11.27h-.13c-.53,1.34-1.07,2.69-1.64,4.01-.26.59-.75,1.94-1.13,2.39-.83.99-2,.42-3.04.21-3.98-.8-7.9-1.67-11.88-2.5l4.56,14.06c.41,1.71-.88,2.06-2.12,2.65-1.29.62-2.6,1.19-3.91,1.77-.04.05.17.24.21.28.74.64,1.57,1.23,2.32,1.84,6.28,5.1,12.55,10.16,18.8,15.28.56.46,1.26.92,1.8,1.38.41.35.6.77.7,1.31-.75,2.7-1.88,5.28-2.79,7.93-.03.09-.19.52-.14.56l3.7-.67c5.24-.88,10.51-1.83,15.75-2.72,1.39-.23,3-.86,4.02.59.63.9.4,1.52.36,2.49l-.8,16.09c-.12,2.4-2.1,4.28-4.5,4.28Z"/>
</svg>